# xmcd
#
# Track frame offsets: 
#        150
#        13952
#        29940
#        47877
#        59772
#        72415
#        84940
#        102570
#        119812
#        129202
#        159507
#        177890
#        187767
#        198525
#        212770
#        227045
#        240557
#        257997
#        271842
#        284967
#
# Disc length: 4067 seconds
#
# Revision: 0
# Processed by: cddbd v1.4PL0 Copyright (c) Steve Scherf et al.
# Submitted via: ExactAudioCopy v0.90b2
#
DISCID=3a0fe114
DTITLE=Various Artist - Hymns of Our Faith
DYEAR=1999
DGENRE=Gospel
TTITLE0=The Old Account Was Settled Long Ago
TTITLE1=Near The Cross
TTITLE2=Sustaining Grace
TTITLE3=Shall We Gather At The River
TTITLE4=You'll Never Walk Alone
TTITLE5=Joyful, Joyful, We Adore Thee
TTITLE6=The Old Rugged Cross
TTITLE7=Because He Lives
TTITLE8=Doxology
TTITLE9=There Is A River
TTITLE10=Were You There
TTITLE11=Just As I Am
TTITLE12=This Old House
TTITLE13=Satisfied
TTITLE14=In The Garden
TTITLE15=Life's Railroad To Heaven
TTITLE16=Blessed Assurance
TTITLE17=Mansion Over The Hilltop
TTITLE18=This World Is Not My Home
TTITLE19=Stranger Of Galilee
EXTD=
EXTT0=
EXTT1=
EXTT2=
EXTT3=
EXTT4=
EXTT5=
EXTT6=
EXTT7=
EXTT8=
EXTT9=
EXTT10=
EXTT11=
EXTT12=
EXTT13=
EXTT14=
EXTT15=
EXTT16=
EXTT17=
EXTT18=
EXTT19=
PLAYORDER=
